<svg width="7066" height="4110" viewBox="0 0 7066 4110" fill="none" xmlns="http://www.w3.org/2000/svg">
<path fill-rule="evenodd" clip-rule="evenodd" d="M3 4072.5V3H7062.5V4107H3V4072.5ZM426 1969V2393.5V2402.5H1150.5V2300H1523.5V2492L1628 2589H2333L2435 2487V2312H2844V2518L2958 2623H3282V3126H2953L2833 3246V3742.5L2953 3855H3728L3846.5 3743.5V3248.5L3726 3128.5H3391V2623H3717.5L3832 2514.5V2314.5H4313.5V2499L4422.5 2601.5H5133.5L5239 2494.5V2310.5H5663.5V2385H6480.5V1935H5659.5V2190.5H5240V2046.5L5131.5 1938H4424.5L4313 2049.5V2187.5H3833V2035.5L3717 1917H3391.5V1697.5L3536.5 1696.5L3713 1518L3710.5 1351H4324V1522.5L4423 1615.5H5079L5181 1519V1355.5H5579V1407H6128.5V953.5H5735L5565 1127V1219H5178V1108L5075 1005H4796V894.5H4946.5L5116.5 724.5V346L4921 150.5H4502L4368 283V719L4543 894H4703V1005H4424L4323.5 1105.5V1213H3709.5V1144L3519 948.5H3095L2961 1082.5V1214H2445.5V1103L2588.5 1103.5L2758.5 927.5V559.5L2568 369H2153.5L2023.5 500.5V938L2188.5 1103H2338.5V1356.5H2960.5V1528L3130 1697.5H3282.5V1917H2959L2843 2033V2187.5H2436V2047.5L2327.5 1939H1630.5L1523 2046.5V2188.5H1155V1969H426Z" fill="#2B2B2B" stroke="#202F3C" stroke-width="6"/>
</svg>
